inDegrees=yes
name=ik_OwnShooting_orientations.mot
DataType=double
version=3
OpenSimVersion=4.3-2021-08-27-4bc7ad9
endheader
time	pelvis_tilt	pelvis_list	pelvis_rotation	pelvis_tx	pelvis_ty	pelvis_tz	hip_flexion_r	hip_adduction_r	hip_rotation_r	knee_angle_r	knee_angle_r_beta	ankle_angle_r	subtalar_angle_r	mtp_angle_r	hip_flexion_l	hip_adduction_l	hip_rotation_l	knee_angle_l	knee_angle_l_beta	ankle_angle_l	subtalar_angle_l	mtp_angle_l	lumbar_extension	lumbar_bending	lumbar_rotation	arm_flex_r	arm_add_r	arm_rot_r	elbow_flex_r	pro_sup_r	wrist_flex_r	wrist_dev_r	arm_flex_l	arm_add_l	arm_rot_l	elbow_flex_l	pro_sup_l	wrist_flex_l	wrist_dev_l
8.25	2.210287760703759	-1.716648203779506	149.0383815563706	0	0.9399999999999999	0	39.01620765910385	-9.960924464887343	0	51.81905761074185	0.9044131705880715	-4.994816668630592	0	0	39.01620765910385	-9.960924464887343	0	51.81905761074185	0.9044131705880715	-4.994816668630592	0	0	11.21087570381266	-4.602453378901884	5.119632186035886	0	-9.729368726636194	0	67.09660011361012	44.64961508345681	0	0	-22.34944005967248	-12.56633128773552	25.83928220333109	0.00279145778177445	44.64961508345681	0	0
8.26	2.178008910260873	-1.725702576857167	149.0499462902975	0	0.9399999999999999	0	39.01787322003154	-9.960962299646242	0	51.82086430142656	0.9044447032890847	-4.994823217538469	0	0	39.01787322003154	-9.960962299646242	0	51.82086430142656	0.9044447032890847	-4.994823217538469	0	0	11.17442142397868	-4.638877696387731	5.112504000222384	0	-9.730116070222023	0	67.09881049732905	44.64988336985392	0	0	-22.64541420088942	-12.89915782948153	25.15571132775735	0.002803674406598951	44.64988336985392	0	0
8.27	2.174597517204384	-1.719516277564334	149.0502592811391	0	0.9399999999999999	0	39.01921255065432	-9.960992674948599	0	51.82231827296946	0.9044700798797386	-4.994828472799927	0	0	39.01921255065432	-9.960992674948599	0	51.82231827296946	0.9044700798797386	-4.994828472799927	0	0	11.15149364452984	-4.634013469219191	5.114996246232356	0	-9.730717444616435	0	67.1005879169246	44.6500988397097	0	0	-22.97451881006259	-13.21713483607993	24.74790885462753	0.002806908153875622	44.6500988397097	0	0
8.279999999999999	2.173838590318337	-1.711502088450333	149.0548867075664	0	0.9399999999999999	0	39.02015090172867	-9.96101390194138	0	51.82333870284628	0.9044878897408748	-4.99483214311618	0	0	39.02015090172867	-9.96101390194138	0	51.82333870284628	0.9044878897408748	-4.99483214311618	0	0	11.13735945822879	-4.616139448808631	5.094876334715175	0	-9.731139343473011	0	67.10183317349349	44.65024949099613	0	0	-23.13453557218076	-13.68004743228424	24.64199057325931	0.002816542872447563	44.65024949099613	0	0
8.289999999999999	2.168803980587578	-1.740382967794093	149.0533856978688	0	0.9399999999999999	0	39.02163932442868	-9.961047633897916	0	51.82495445830296	0.904516089993501	-4.99483797708692	0	0	39.02163932442868	-9.961047633897916	0	51.82495445830296	0.904516089993501	-4.99483797708692	0	0	11.15928463150989	-4.637456034256657	5.076959884466921	0	-9.731807729779298	0	67.10380844436783	44.65048882699456	0	0	-22.84271678650861	-14.52194590419959	24.73547950528566	0.002836240740527844	44.65048882699456	0	0
8.300000000000001	2.160160247862599	-1.720498900796306	149.040477332381	0	0.9399999999999999	0	39.02290203698707	-9.961076227849681	0	51.82632541671333	0.9045400177316699	-4.994842920910743	0	0	39.02290203698707	-9.961076227849681	0	51.82632541671333	0.9045400177316699	-4.994842920910743	0	0	11.09876230465969	-4.623613903392372	5.098152358615301	0	-9.732374878672683	0	67.10548416948166	44.65069175197418	0	0	-23.12332295705016	-14.99808814854248	24.19028619775311	0.002835641378417968	44.65069175197418	0	0
8.31	2.153667827945898	-1.736327531801011	149.0471180338104	0	0.9399999999999999	0	39.02423979963681	-9.96110646364329	0	51.8277796111648	0.9045653982128122	-4.994848146135235	0	0	39.02423979963681	-9.96110646364329	0	51.8277796111648	0.9045653982128122	-4.994848146135235	0	0	11.10551853883827	-4.64447701229079	5.074069195764215	0	-9.732976320359262	0	67.10725946596129	44.65090641206495	0	0	-23.28190907060643	-15.00494618229802	23.82100764780679	0.002872901729733235	44.65090641206495	0	0
8.32	2.150727100176397	-1.737093158889751	149.0665603938983	0	0.9399999999999999	0	39.02605023065112	-9.961147449868335	0	51.82974402370822	0.9045996836795623	-4.994855230259189	0	0	39.02605023065112	-9.961147449868335	0	51.82974402370822	0.9045996836795623	-4.994855230259189	0	0	11.09222271759733	-4.655614473615943	5.048228699730466	0	-9.733789244728326	0	67.10966206018873	44.65119733512842	0	0	-23.35583856078423	-15.11347906619777	23.15742041161658	0.002897722470653201	44.65119733512842	0	0
8.33	2.135306188442486	-1.740527333481701	149.0807463488354	0	0.9399999999999999	0	39.02845477190257	-9.961201886324575	0	51.83235140509949	0.9046451910696953	-4.994864637175516	0	0	39.02845477190257	-9.961201886324575	0	51.83235140509949	0.9046451910696953	-4.994864637175516	0	0	11.07918664461398	-4.660840369034868	5.029109175898001	0	-9.734868563533077	0	67.11285309532143	44.6515837689202	0	0	-22.87914265534755	-15.13097266467222	22.34745397842989	0.002942106634536659	44.6515837689202	0	0
8.34	2.123372728498682	-1.7434170403793	149.073936699713	0	0.9399999999999999	0	39.11595735455124	-9.96293192165505	0	51.93276362692425	0.9063977149497802	-4.995151377318128	0	0	39.11595735455124	-9.96293192165505	0	51.93276362692425	0.9063977149497802	-4.995151377318128	0	0	11.0695021179825	-4.663113908655052	5.023932136363982	0	-9.776130870012805	0	67.22887369855331	44.66426894360931	0	0	-21.41712482236664	-17.18654828486389	20.8531821018914	0.002977898934054638	44.66426894360931	0	0
8.35	2.118172672883031	-1.742387996685998	149.0804807540119	0	0.9399999999999999	0	39.45480795806543	-9.968071481143387	0	52.32922551704998	0.9133172802911543	-4.995937296300397	0	0	39.45480795806543	-9.968071481143387	0	52.32922551704998	0.9133172802911543	-4.995937296300397	0	0	11.05635239893323	-4.647534019852512	5.011845451693367	0	-9.947870129199071	0	67.67736400254199	44.70447235868368	0	0	-23.22842628497327	-18.45172224232877	11.16108631930692	0.00299248709347442	44.70447235868368	0	0
8.359999999999999	2.122555590872513	-1.750489002199093	149.1015923923559	0	0.9399999999999999	0	39.50134115080674	-9.968735590319698	0	52.3932314971027	0.9144343953840399	-4.996039644583781	0	0	39.50134115080674	-9.968735590319698	0	52.3932314971027	0.9144343953840399	-4.996039644583781	0	0	11.0511951640672	-4.650936994269055	4.985977716479447	0	-9.973396923710032	0	67.73893305048615	44.70966406330405	0	0	-22.68541314884289	-19.32624371210539	0.238380650755674	0.003252795977617138	44.70966406330405	0	0
8.369999999999999	2.120936684968589	-1.760502607620495	149.0862511922362	0	0.9399999999999999	0	39.53208814309867	-9.969170293810794	0	52.43519128671902	0.9151667318662888	-4.99610630960848	0	0	39.53208814309867	-9.969170293810794	0	52.43519128671902	0.9151667318662888	-4.99610630960848	0	0	11.0683031754742	-4.630514704057993	4.99755867618845	0	-9.990265205880291	0	67.77961486353786	44.71307349601575	0	0	-20.03903739282512	-18.43964263002562	-11.45463726364138	0.003939341899676926	44.71307349601575	0	0
8.380000000000001	2.116960325984632	-1.76260152520913	149.0853505946933	0	0.9399999999999999	0	39.55112790591147	-9.96943967609641	0	52.46099582728178	0.9156171060610736	-4.996147584161085	0	0	39.55112790591147	-9.96943967609641	0	52.46099582728178	0.9156171060610736	-4.996147584161085	0	0	11.04751325842667	-4.626150989168165	4.99283872158624	0	-10.00069104156613	0	67.80480726751328	44.715187097198	0	0	-16.55041411033817	-20.15463368636331	-18.24182313881374	0.004739909708368883	44.715187097198	0	0
8.390000000000001	2.111263058532877	-1.766283424126213	149.0877230380178	0	0.9399999999999999	0	39.56991816513047	-9.969701026998928	0	52.48662407250715	0.9160644033217649	-4.996187430579211	0	0	39.56991816513047	-9.969701026998928	0	52.48662407250715	0.9160644033217649	-4.996187430579211	0	0	11.02593453895778	-4.624272335554202	4.984121697521942	0	-10.01104280997055	0	67.82966749804166	44.71724577815446	0	0	-13.83456186610575	-18.01849067435184	-24.23771177320773	0.006162018218241232	44.71724577815446	0	0
8.4	2.097413778369041	-1.7663131624783	149.0967366317773	0	0.9399999999999999	0	39.58884107644635	-9.969961788086302	0	52.51249340533366	0.9165159083548816	-4.99622707290002	0	0	39.58884107644635	-9.969961788086302	0	52.51249340533366	0.9165159083548816	-4.99622707290002	0	0	11.00620957535763	-4.631545579986865	4.977782777091515	0	-10.02149960110213	0	67.85470218660433	44.71930439995509	0	0	-10.58531640661626	-14.57447370048212	-29.37757080797879	0.008843429812444707	44.71930439995509	0	0
8.41	2.117809279956909	-1.769478811480987	149.101833514735	0	0.9399999999999999	0	39.59091765664424	-9.970001937538024	0	52.51476802179694	0.9165556079013859	-4.996233652833217	0	0	39.59091765664424	-9.970001937538024	0	52.51476802179694	0.9165556079013859	-4.996233652833217	0	0	11.00390774116523	-4.630816633295614	4.947014708723123	0	-10.02247349080056	0	67.8574549566019	44.71960109686162	0	0	-8.736344759428397	-8.590014079590091	-31.44102679273696	0.0119282737916713	44.71960109686162	0	0
8.42	2.082296090320545	-1.761418344289168	149.1170191536237	0	0.9399999999999999	0	39.59318326035187	-9.970045726243267	0	52.51724890187554	0.9165989074271046	-4.996240827263296	0	0	39.59318326035187	-9.970045726243267	0	52.51724890187554	0.9165989074271046	-4.996240827263296	0	0	10.9734683790237	-4.638000587940404	4.94656344839942	0	-10.02353592712672	0	67.86045829782422	44.71992473897655	0	0	-7.367279448289733	-5.908903485109347	-32.28250677110493	0.01473286644338731	44.71992473897655	0	0
8.43	2.07468675504651	-1.767553112051579	149.1189613648201	0	0.9399999999999999	0	39.62432101151838	-9.970471592476233	0	52.55994013059254	0.9173440099299383	-4.996305416945725	0	0	39.62432101151838	-9.970471592476233	0	52.55994013059254	0.9173440099299383	-4.996305416945725	0	0	10.96450701061885	-4.647088384934206	4.941798703162076	0	-10.04078924801846	0	67.90165141106223	44.72329282842809	0	0	-6.2722991293081	5.362383926565104	-33.45968918172508	0.02256716505807769	44.72329282842809	0	0
8.44	2.064304923760522	-1.777714644384702	149.1133397152637	0	0.9399999999999999	0	39.62473762718654	-9.970479524245562	0	52.56039839160926	0.9173520080935136	-4.99630671066435	0	0	39.62473762718654	-9.970479524245562	0	52.56039839160926	0.9173520080935136	-4.99630671066435	0	0	10.9239738064643	-4.654094627051936	4.919218632097119	0	-10.04098575553848	0	67.9022036340717	44.72335165750007	0	0	-6.486506409104669	5.454566724626722	-33.47492332901237	0.0196535887814622	44.72335165750007	0	0
